<svg viewBox="51.2046676096181 219.07039999999998 155.9956152758133 154.778" version="1.1" xmlns="http://www.w3.org/2000/svg" id="Layer_1" style="max-height: 500px" width="155.9956152758133" height="154.778">
  
  <path d="M129.5,230.4c-37.2,0-67.5,30.3-67.5,67.5s30.3,67.5,67.5,67.5,67.5-30.3,67.5-67.5-30.3-67.5-67.5-67.5ZM188.8,298c0,9.1-2,17.6-5.7,25.3-.8-9.8-4.9-21-12.1-32.6l-6,6c11,18.4,13.2,36.3,5,44-5.3,5-14.4,5.7-25.6,1.8-12.1-4.1-24.9-12.9-36-24.6-11.1-11.7-19.1-25-22.6-37.3-3.2-11.4-2-20.4,3.2-25.4,7.9-7.4,24.1-5,41.2,5.8,1.8,1.2,3.1,3.1,3.4,5.3,0,0,0,0,0,0,.4,3.1-.3,7.2-.9,10.2-.3,1.5,1.2,2.6,2.5,1.9,2.7-1.4,6.5-3.2,9.6-3.6,3.1-.4,7.2.3,10.2.9,1.4.3,2.6-1.2,1.9-2.5-1.4-2.7-3.2-6.5-3.6-9.6-.4-3.1.3-7.2.9-10.2.3-1.5-1.2-2.6-2.5-1.9-2.7,1.4-6.5,3.2-9.6,3.6,0,0,0,0,0,0-3.1.4-6.1-.4-8.8-2,0,0-.3-.2-.3-.2-9.1-5.5-17.9-8.9-25.9-10,6.9-2.8,14.4-4.4,22.3-4.4,32.7,0,59.3,26.6,59.3,59.3ZM70.2,298c0-9.1,2.1-17.7,5.7-25.4.3,3.2.9,6.7,1.9,10.3,3.8,13.6,12.5,28.1,24.5,40.8,12,12.7,26,22.2,39.3,26.7,3.5,1.2,6.9,2,10.2,2.5-6.9,2.8-14.5,4.4-22.4,4.4-32.7,0-59.3-26.6-59.3-59.3Z"/>
  <path d="M336.3,289c-2.2-2.1-4.9-3.7-8-4.8-3-1.2-6.2-1.8-9.6-1.8s-6.6.6-9.7,1.8c-3,1.1-5.7,2.7-8,4.8-2.2,2.1-4,4.7-5.4,7.7-1.4,3-2,6.4-2,10s.7,7.3,2,10.4c1.4,3,3.2,5.6,5.5,7.8,2.3,2.1,5,3.8,8,4.9,3,1.1,6.3,1.7,9.7,1.7s6.5-.6,9.6-1.8c3.1-1.2,5.8-2.8,8.1-4.9,2.3-2.2,4.1-4.8,5.4-7.8,1.4-3.1,2-6.5,2-10.3s-.7-7.1-2-10.1c-1.4-3-3.2-5.6-5.5-7.6ZM327.7,321.3c-1.7,3.7-4.7,5.6-8.9,5.6s-7.2-1.9-9-5.6c-1.7-3.8-2.6-8.6-2.6-14.5s.9-10.5,2.6-14.1c1.7-3.7,4.7-5.5,9-5.5s7.1,1.8,8.9,5.5c1.8,3.7,2.7,8.4,2.7,14.1s-.9,10.8-2.7,14.5ZM271,321.9c-2.7,2.9-6.4,4.4-11.1,4.4s-5.8-.7-8.1-2c-2.2-1.4-4.1-3.4-5.5-5.9-1.4-2.5-2.5-5.5-3.2-9-.7-3.5-1-7.4-1-11.6,0-8.6,1.4-15.5,4.3-20.5,2.9-5.1,7.3-7.7,13.5-7.7s8.5,1.4,11.3,4.1c2.8,2.7,4.4,6.5,4.8,11.5h12.6c-.4-3.3-1.4-6.2-3.1-8.8-1.6-2.6-3.7-4.8-6.2-6.5-2.5-1.8-5.5-3.2-8.8-4.1-3.3-1-6.8-1.5-10.5-1.5s-8.5.8-12.5,2.3c-3.9,1.5-7.3,3.7-10.3,6.6-2.9,2.9-5.2,6.4-7,10.5-1.7,4.2-2.6,8.9-2.6,14.1s.8,10,2.5,14.2c1.7,4.2,4.1,7.7,7,10.6,2.9,2.9,6.3,5.1,10.2,6.7,4,1.5,8.2,2.3,12.6,2.3s7.4-.5,10.7-1.5c3.3-1.1,6.3-2.5,8.7-4.4,2.5-1.9,4.6-4.2,6.2-6.9,1.6-2.7,2.7-5.8,3.2-9.1h-12.6c-.6,5.1-2.3,9.2-5.1,12.2ZM512.5,288.6c-2.1-2-4.6-3.5-7.3-4.5-2.8-1.1-5.7-1.6-8.8-1.6s-5.8.6-8.6,1.7c-2.9,1.1-5.4,2.7-7.6,4.8-2.2,2-3.9,4.6-5.3,7.6-1.4,3-2,6.5-2,10.3s.7,7.7,2,10.8c1.4,3.1,3.3,5.7,5.6,7.7s5,3.6,8,4.6c3,1,6.2,1.5,9.4,1.5,5.6,0,10.4-1.4,14.2-4.2,3.9-2.9,6.4-6.7,7.4-11.4h-6.8c-.8,3-2.4,5.4-4.6,7.3-2.2,1.8-5,2.7-8.4,2.7s-7.3-1.7-9.8-5c-2.4-3.4-3.5-8-3.5-13.8h0c0,0,33.1,0,33.1,0v-1.6c0-3.7-.6-6.9-1.9-9.8-1.2-2.9-2.9-5.2-5-7.2ZM486.3,302.1c.2-4.6,1.1-8.3,2.8-10.9,1.7-2.6,4.1-3.9,7.3-3.9s5.8,1.3,7.3,4c1.5,2.7,2.3,6.3,2.2,10.8h-19.5ZM460.6,269.4h-.3l-12,5.3v8.8h-7.9v5h7.9v30.9c0,4.5,1.1,7.5,3.3,9,2.2,1.5,5.6,2.2,10,2.2s4.5,0,6,0c1.6,0,3,0,4.1,0v-4.9h-6c-1.7,0-3.1-.4-4-1.1-.9-.8-1.4-2.4-1.4-4.6v-31.2h11.3v-5h-11.3v-14.1ZM435.3,307.1c-2.8-2.1-6.7-3.8-11.7-5.1l-4.6-1.2c-3-.8-5.1-1.7-6.5-2.7-1.4-1.1-2-2.4-2-4.1s.8-3.6,2.3-4.8c1.6-1.3,3.8-2,6.4-2s4.5.8,6,2.3c1.5,1.5,2.3,3.8,2.5,6.6h11.4c-.4-4.3-2.4-7.6-6.1-10-3.7-2.4-8.2-3.6-13.8-3.6s-5.3.3-7.6,1c-2.4.7-4.4,1.7-6.1,3-1.7,1.2-3.1,2.8-4.1,4.6-1,1.8-1.5,3.8-1.5,6,0,3.9,1.3,6.9,3.8,8.9,2.5,2,6,3.7,10.5,4.8l4.5,1.2c3.3.9,5.9,2,7.5,3.2,1.7,1.2,2.6,2.7,2.6,4.6s-1,4.2-2.9,5.3c-1.9,1.1-4.2,1.7-6.9,1.7s-5.3-1-7-2.9c-1.7-1.9-2.6-4.6-2.7-7.9h-11.5c.4,5,2.5,8.9,6.1,11.5,3.7,2.7,8.7,4,15.1,4s5.2-.3,7.7-1c2.5-.6,4.6-1.6,6.5-2.9,1.9-1.3,3.4-2.9,4.6-4.8,1.2-1.9,1.8-4.1,1.8-6.6,0-4.1-1.4-7.2-4.2-9.2ZM376.5,282.5c-3.6,0-6.7.8-9.4,2.5-2.6,1.7-4.6,3.9-6,6.8v-8.3h-11.9v47.1h12.3v-22.4c0-3.5.3-6.4.9-8.9.7-2.5,1.5-4.5,2.6-6,1.1-1.6,2.4-2.8,3.7-3.5,1.4-.7,2.7-1.1,4.1-1.1,2.5,0,4.4.9,5.8,2.7,1.4,1.8,2.1,4.7,2.1,8.8v30.5h12.3v-29.3c0-7-1.6-11.9-4.7-14.6-3.1-2.8-7-4.2-11.8-4.2ZM712,289c-2.2-2.1-4.9-3.7-8-4.8-3-1.2-6.2-1.8-9.6-1.8s-6.6.6-9.7,1.8c-3,1.1-5.7,2.7-8,4.8-2.2,2.1-4,4.7-5.4,7.7-1.4,3-2,6.4-2,10s.7,7.3,2,10.4c1.4,3,3.2,5.6,5.5,7.8,2.3,2.1,5,3.8,8,4.9,3,1.1,6.3,1.7,9.7,1.7s6.5-.6,9.6-1.8c3.1-1.2,5.8-2.8,8.1-4.9,2.3-2.2,4.1-4.8,5.4-7.8,1.4-3.1,2-6.5,2-10.3s-.7-7.1-2-10.1c-1.4-3-3.2-5.6-5.5-7.6ZM703.4,321.3c-1.7,3.7-4.7,5.6-8.9,5.6s-7.2-1.9-9-5.6c-1.7-3.8-2.6-8.6-2.6-14.5s.9-10.5,2.6-14.1c1.7-3.7,4.7-5.5,9-5.5s7.1,1.8,8.9,5.5c1.8,3.7,2.7,8.4,2.7,14.1s-.9,10.8-2.7,14.5ZM525.8,330.6h12.3v-66.9h-12.3v66.9ZM764,286.7c-3.1-2.8-7-4.2-11.8-4.2s-6.7.8-9.4,2.5c-2.6,1.7-4.6,3.9-6,6.8v-8.3h-11.9v47.1h12.3v-22.4c0-3.5.3-6.4.9-8.9.7-2.5,1.5-4.5,2.6-6,1.1-1.6,2.4-2.8,3.7-3.5,1.4-.7,2.7-1.1,4.1-1.1,2.5,0,4.4.9,5.8,2.7,1.4,1.8,2.1,4.7,2.1,8.8v30.5h12.3v-29.3c0-7-1.6-11.9-4.7-14.6ZM651.6,330.6h12.3v-47.1h-12.3v47.1ZM651.2,275.9h13v-12.3h-13v12.3ZM548.3,330.6h12.3v-66.9h-12.3v66.9ZM609.9,320.9v-20c.2-6.2-1.7-10.8-5.5-13.9-3.8-3.1-8.9-4.6-15.3-4.6s-5.3.4-7.8,1.1c-2.4.7-4.6,1.7-6.4,3.1-1.8,1.3-3.3,2.9-4.5,4.7-1.2,1.9-1.9,3.9-2.1,6.2h11.7c.2-3.3,1.1-5.9,2.6-7.7,1.5-1.9,3.7-2.8,6.5-2.8s5.1.9,6.6,2.7c1.5,1.8,2.3,4.6,2.3,8.6v2.7l-8.6,1.4c-8,1.4-13.8,3.2-17.4,5.6-3.6,2.4-5.4,5.8-5.4,10.2s.5,4.4,1.4,6.1c1,1.7,2.2,3,3.7,4.1,1.5,1.1,3.3,1.8,5.2,2.3s3.9.7,5.9.7c3.7,0,6.9-.8,9.5-2.4,2.6-1.7,4.7-3.8,6.2-6.2l.3,7.7h11.5c-.1-2.7-.2-4.8-.4-6.2,0-1.5,0-2.6,0-3.4ZM598,310.3c0,4.7-1.1,8.4-3.4,11.1-2.2,2.7-4.8,4-7.6,4s-4-.7-5.6-2c-1.5-1.4-2.2-3.4-2.2-6s1.5-5.6,4.6-7.4c3.1-1.9,7.8-3,14.2-3.5v4ZM634.1,269.4h-.3l-12,5.3v8.8h-7.9v5h7.9v30.9c0,4.5,1.1,7.5,3.3,9,2.2,1.5,5.6,2.2,10,2.2s4.5,0,6,0c1.6,0,3,0,4.1,0v-4.9h-6c-1.7,0-3.1-.4-4-1.1-.9-.8-1.4-2.4-1.4-4.6v-31.2h11.3v-5h-11.3v-14.1Z"/>
</svg>